<svg width="91" height="95" viewBox="0 0 91 95" fill="none" xmlns="http://www.w3.org/2000/svg">
<g clip-path="url(#clip0_57_58)">
<path opacity="0.2" d="M15.5731 82.7539C15.0358 83.0501 14.4217 83.1589 13.8208 83.0642C13.22 82.9696 12.664 82.6765 12.2343 82.2279C11.8046 81.7794 11.5239 81.1989 11.4332 80.5716C11.3425 79.9444 11.4467 79.3033 11.7305 78.7423C11.7305 78.7423 22.75 41.5625 37.111 26.8671C40.8443 22.9697 45.9078 20.7802 51.1875 20.7802C56.4673 20.7802 61.5308 22.9697 65.2641 26.8671C68.9974 30.7646 71.0948 36.0507 71.0948 41.5625C71.0948 47.0743 68.9974 52.3603 65.2641 56.2578C51.1875 71.25 15.5731 82.7539 15.5731 82.7539Z" fill="black"/>
<path d="M79.6251 11.875L65.2642 26.8672" stroke="black" stroke-width="2" stroke-linecap="round" stroke-linejoin="round"/>
<path d="M15.5731 82.7539C15.0358 83.0501 14.4217 83.1589 13.8208 83.0642C13.22 82.9696 12.664 82.6765 12.2343 82.2279C11.8046 81.7794 11.5239 81.1989 11.4332 80.5716C11.3425 79.9444 11.4467 79.3033 11.7305 78.7423C11.7305 78.7423 22.75 41.5625 37.111 26.8671C40.8443 22.9697 45.9078 20.7802 51.1875 20.7802C56.4673 20.7802 61.5308 22.9697 65.2641 26.8671C68.9974 30.7646 71.0948 36.0507 71.0948 41.5625C71.0948 47.0743 68.9974 52.3603 65.2641 56.2578C51.1875 71.25 15.5731 82.7539 15.5731 82.7539Z" stroke="black" stroke-width="2" stroke-linecap="round" stroke-linejoin="round"/>
<path d="M82.4688 26.7188H65.1184" stroke="black" stroke-width="2" stroke-linecap="round" stroke-linejoin="round"/>
<path d="M65.4062 27.0193V8.90625" stroke="black" stroke-width="2" stroke-linecap="round" stroke-linejoin="round"/>
<path d="M39.8125 56.4062L50.3699 67.4277" stroke="black" stroke-width="2" stroke-linecap="round" stroke-linejoin="round"/>
<path d="M37.1108 26.8672L51.1874 41.5625" stroke="black" stroke-width="2" stroke-linecap="round" stroke-linejoin="round"/>
</g>
<defs>
<clipPath id="clip0_57_58">
<rect width="91" height="95" fill="white"/>
</clipPath>
</defs>
</svg>
