<svg width="94" height="86" viewBox="0 0 94 86" fill="none" xmlns="http://www.w3.org/2000/svg">
<g clip-path="url(#clip0_57_73)">
<path opacity="0.2" d="M38.1875 16.125H55.8125L76.375 40.4402V61.8125C76.375 64.6636 75.1371 67.3979 72.9335 69.4139C70.7299 71.4299 67.7413 72.5625 64.625 72.5625H29.375C26.2587 72.5625 23.27 71.4299 21.0665 69.4139C18.8629 67.3979 17.625 64.6636 17.625 61.8125V40.4402L38.1875 16.125Z" fill="black"/>
<path d="M47 64.5V72.5625" stroke="black" stroke-width="2" stroke-linecap="round" stroke-linejoin="round"/>
<path d="M52.875 59.125L47 64.5L41.125 59.125" stroke="black" stroke-width="2" stroke-linecap="round" stroke-linejoin="round"/>
<path d="M38.1875 16.125H55.8125" stroke="black" stroke-width="2" stroke-linecap="round" stroke-linejoin="round"/>
<path d="M38.1875 16.125L18.4953 10.8307C18.1067 10.742 17.7025 10.7269 17.3073 10.7864C16.9122 10.8459 16.5345 10.9786 16.1975 11.1765C15.8605 11.3744 15.5713 11.6333 15.3476 11.9372C15.1239 12.2411 14.9705 12.5836 14.8968 12.9437L8.86762 42.5062C8.30215 45.271 12.1723 46.8734 14.067 44.6629L38.1875 16.125Z" stroke="black" stroke-width="2" stroke-linecap="round" stroke-linejoin="round"/>
<path d="M55.8125 16.125L75.5048 10.8307C75.8933 10.742 76.2976 10.7269 76.6927 10.7864C77.0879 10.8459 77.4655 10.9786 77.8026 11.1765C78.1396 11.3744 78.4288 11.6333 78.6525 11.9372C78.8761 12.2411 79.0295 12.5836 79.1032 12.9437L85.1324 42.5062C85.6979 45.271 81.8277 46.8734 79.933 44.6629L55.8125 16.125Z" stroke="black" stroke-width="2" stroke-linecap="round" stroke-linejoin="round"/>
<path d="M33.7812 51.0625C36.2148 51.0625 38.1875 49.2576 38.1875 47.0312C38.1875 44.8049 36.2148 43 33.7812 43C31.3477 43 29.375 44.8049 29.375 47.0312C29.375 49.2576 31.3477 51.0625 33.7812 51.0625Z" fill="black"/>
<path d="M60.2188 51.0625C62.6523 51.0625 64.625 49.2576 64.625 47.0312C64.625 44.8049 62.6523 43 60.2188 43C57.7852 43 55.8125 44.8049 55.8125 47.0312C55.8125 49.2576 57.7852 51.0625 60.2188 51.0625Z" fill="black"/>
<path d="M76.375 40.4402V61.8125C76.375 64.6636 75.1371 67.3979 72.9335 69.4139C70.73 71.4299 67.7413 72.5625 64.625 72.5625H29.375C26.2587 72.5625 23.27 71.4299 21.0665 69.4139C18.8629 67.3979 17.625 64.6636 17.625 61.8125V40.4402" stroke="black" stroke-width="2" stroke-linecap="round" stroke-linejoin="round"/>
</g>
<defs>
<clipPath id="clip0_57_73">
<rect width="94" height="86" fill="white"/>
</clipPath>
</defs>
</svg>
