<svg width="92" height="92" viewBox="0 0 92 92" fill="none" xmlns="http://www.w3.org/2000/svg">
<g clip-path="url(#clip0_57_84)">
<path opacity="0.2" d="M46 80.5C46 80.5 8.625 60.375 8.625 36.6562C8.625 31.5094 10.6696 26.5733 14.309 22.934C17.9483 19.2946 22.8844 17.25 28.0312 17.25C36.1495 17.25 43.1034 21.6739 46 28.75C48.8966 21.6739 55.8505 17.25 63.9688 17.25C69.1156 17.25 74.0517 19.2946 77.691 22.934C81.3304 26.5733 83.375 31.5094 83.375 36.6562C83.375 60.375 46 80.5 46 80.5Z" fill="black"/>
<path d="M11.5 48.875H25.875L31.625 40.25L43.125 57.5L48.875 48.875H57.5" stroke="black" stroke-width="2" stroke-linecap="round" stroke-linejoin="round"/>
<path d="M8.625 37.375C8.625 37.1342 8.625 36.897 8.625 36.6562C8.625 31.5094 10.6696 26.5733 14.309 22.934C17.9483 19.2946 22.8844 17.25 28.0312 17.25C36.1495 17.25 43.1034 21.6739 46 28.75C48.8966 21.6739 55.8505 17.25 63.9688 17.25C69.1156 17.25 74.0517 19.2946 77.691 22.934C81.3304 26.5733 83.375 31.5094 83.375 36.6562C83.375 60.375 46 80.5 46 80.5C46 80.5 30.9062 72.3781 19.9166 60.375" stroke="black" stroke-width="2" stroke-linecap="round" stroke-linejoin="round"/>
</g>
<defs>
<clipPath id="clip0_57_84">
<rect width="92" height="92" fill="white"/>
</clipPath>
</defs>
</svg>
