<svg width="66" height="58" viewBox="0 0 66 58" fill="none" xmlns="http://www.w3.org/2000/svg">
<rect width="66" height="58" rx="10" fill="#FF0060"/>
<path d="M25.5557 25.22L25.5696 25.2048" stroke="black" stroke-width="2" stroke-linecap="square" stroke-linejoin="round"/>
<path d="M31.1111 25.22L31.125 25.2048" stroke="black" stroke-width="2" stroke-linecap="square" stroke-linejoin="round"/>
<path d="M25.5557 30.6909L25.5696 30.6757" stroke="black" stroke-width="2" stroke-linecap="square" stroke-linejoin="round"/>
<path d="M31.1111 30.6909L31.125 30.6757" stroke="black" stroke-width="2" stroke-linecap="square" stroke-linejoin="round"/>
<path d="M25.5557 36.1619L25.5696 36.1467" stroke="black" stroke-width="2" stroke-linecap="square" stroke-linejoin="round"/>
<path d="M31.1111 36.1619L31.125 36.1467" stroke="black" stroke-width="2" stroke-linecap="square" stroke-linejoin="round"/>
<path d="M36.6667 41.619H20.8333C20.3731 41.619 20 41.2517 20 40.7984V20.5561C20 20.1029 20.3731 19.7354 20.8333 19.7354H28.3333V17.8206C28.3333 17.3674 28.7064 17 29.1667 17H35.8333C36.2936 17 36.6667 17.3674 36.6667 17.8206V25.2063M36.6667 41.619H44.1667C44.6269 41.619 45 41.2517 45 40.7984V26.027C45 25.5738 44.6269 25.2063 44.1667 25.2063H36.6667M36.6667 41.619V36.1481M36.6667 25.2063V30.6772M36.6667 36.1481V30.6772M36.6667 36.1481H39.4444M36.6667 30.6772H39.4444" stroke="black" stroke-width="2" stroke-linecap="square" stroke-linejoin="round"/>
</svg>
