<svg width="66" height="58" viewBox="0 0 66 58" fill="none" xmlns="http://www.w3.org/2000/svg">
<rect width="66" height="58" rx="10" fill="#FF0060"/>
<path d="M40.5 34C40.5 34.2967 40.412 34.5867 40.2472 34.8334C40.0824 35.08 39.8481 35.2723 39.574 35.3858C39.2999 35.4993 38.9983 35.5291 38.7074 35.4712C38.4164 35.4133 38.1491 35.2704 37.9393 35.0607C37.7296 34.8509 37.5867 34.5836 37.5288 34.2926C37.4709 34.0017 37.5007 33.7001 37.6142 33.426C37.7277 33.1519 37.92 32.9176 38.1666 32.7528C38.4133 32.588 38.7033 32.5 39 32.5C39.3978 32.5 39.7794 32.658 40.0607 32.9393C40.342 33.2206 40.5 33.6022 40.5 34ZM39.9312 38.9112C39.7116 40.3273 38.9932 41.6182 37.9057 42.5513C36.8181 43.4844 35.433 43.9982 34 44H31C29.4092 43.9983 27.884 43.3657 26.7592 42.2408C25.6343 41.116 25.0017 39.5908 25 38V32.9363C23.0669 32.6927 21.2891 31.7521 20.0003 30.2909C18.7115 28.8297 18.0002 26.9484 18 25V19C18 18.7348 18.1054 18.4804 18.2929 18.2929C18.4804 18.1054 18.7348 18 19 18H22C22.2652 18 22.5196 18.1054 22.7071 18.2929C22.8946 18.4804 23 18.7348 23 19C23 19.2652 22.8946 19.5196 22.7071 19.7071C22.5196 19.8946 22.2652 20 22 20H20V25C19.9999 25.7947 20.1577 26.5815 20.4643 27.3147C20.7708 28.0479 21.2199 28.713 21.7855 29.2712C22.3512 29.8294 23.0221 30.2697 23.7593 30.5664C24.4965 30.8632 25.2854 31.0106 26.08 31C29.3438 30.9575 32 28.2187 32 24.8962V20H30C29.7348 20 29.4804 19.8946 29.2929 19.7071C29.1054 19.5196 29 19.2652 29 19C29 18.7348 29.1054 18.4804 29.2929 18.2929C29.4804 18.1054 29.7348 18 30 18H33C33.2652 18 33.5196 18.1054 33.7071 18.2929C33.8946 18.4804 34 18.7348 34 19V24.8962C34 29.0012 30.9337 32.4325 27 32.935V38C27 39.0609 27.4214 40.0783 28.1716 40.8284C28.9217 41.5786 29.9391 42 31 42H34C34.9084 41.9985 35.7893 41.6884 36.4983 41.1207C37.2074 40.5529 37.7025 39.7611 37.9025 38.875C36.6948 38.6037 35.6306 37.8941 34.916 36.8835C34.2013 35.8729 33.8869 34.6331 34.0336 33.404C34.1803 32.1749 34.7776 31.0439 35.7101 30.2299C36.6426 29.4159 37.8439 28.9767 39.0815 28.9972C40.3191 29.0178 41.5051 29.4968 42.41 30.3414C43.3149 31.186 43.8743 32.3362 43.98 33.5694C44.0858 34.8027 43.7303 36.0314 42.9824 37.0177C42.2345 38.004 41.1473 38.6778 39.9312 38.9088V38.9112ZM42 34C42 33.4067 41.8241 32.8266 41.4944 32.3333C41.1648 31.8399 40.6962 31.4554 40.1481 31.2284C39.5999 31.0013 38.9967 30.9419 38.4147 31.0576C37.8328 31.1734 37.2982 31.4591 36.8787 31.8787C36.4591 32.2982 36.1734 32.8328 36.0576 33.4147C35.9419 33.9967 36.0013 34.5999 36.2284 35.1481C36.4554 35.6962 36.8399 36.1648 37.3333 36.4944C37.8266 36.8241 38.4067 37 39 37C39.7956 37 40.5587 36.6839 41.1213 36.1213C41.6839 35.5587 42 34.7956 42 34Z" fill="black"/>
</svg>
