<svg width="67" height="69" viewBox="0 0 67 69" fill="none" xmlns="http://www.w3.org/2000/svg">
<path d="M1.53131 18.106C1.50588 42.3776 10.0612 61.6875 17.5157 66.6289C17.937 66.9007 18.4277 67.0636 18.9379 67.1011C19.4482 67.1386 19.96 67.0493 20.4215 66.8424C20.8831 66.6355 21.278 66.3182 21.5664 65.9227C21.8548 65.5271 22.0265 65.0673 22.064 64.5898C22.6016 57.7148 24.7813 45.375 33.5001 45.375C42.2188 45.375 44.3985 57.7148 44.947 64.5864C44.9845 65.0639 45.1562 65.5237 45.4446 65.9193C45.733 66.3148 46.1279 66.6321 46.5895 66.839C47.0511 67.0459 47.5628 67.1352 48.0731 67.0977C48.5834 67.0602 49.074 66.8973 49.4953 66.6255C56.939 61.6807 65.4797 42.3742 65.4797 18.1026C65.4614 13.7875 63.614 9.65551 60.3428 6.61322C57.0717 3.57093 52.644 1.86689 48.0313 1.87503H18.9688C14.3574 1.8696 9.93194 3.5753 6.66303 6.61803C3.39411 9.66076 1.54862 13.7921 1.53131 18.106Z" stroke="black" stroke-width="2" stroke-linecap="round" stroke-linejoin="round"/>
</svg>
